<svg xmlns="http://www.w3.org/2000/svg" viewBox="0 0 120 120">
    <path d="M94,0H26A26,26,0,0,0,0,26V94a26,26,0,0,0,26,26H94a26,26,0,0,0,26-26V26A26,26,0,0,0,94,0Zm.13,76.54C85,87.09,64.47,99.94,59.8,101.9s-4-1.25-3.78-2.35l.62-3.74a8.93,8.93,0,0,0-.14-4C56,90.64,54.08,90,52.65,89.7c-21-2.77-36.54-17.45-36.54-35,0-19.55,19.61-35.45,43.69-35.45s43.7,15.9,43.7,35.45c0,7.83-3,14.87-9.37,21.82Z"/>
    <path d="M50.93,45.28H47.86a.85.85,0,0,0-.85.85v19a.85.85,0,0,0,.85.85h3.07a.85.85,0,0,0,.85-.85v-19a.85.85,0,0,0-.85-.85"/>
    <path d="M72,45.28H69a.85.85,0,0,0-.85.85V57.44L59.38,45.65l-.06-.08h0l-.05-.05h0l0,0,0,0,0,0,0,0,0,0h0l-.05,0h0l-.05,0h-3.3a.85.85,0,0,0-.85.85v19a.85.85,0,0,0,.85.85h3.06a.86.86,0,0,0,.86-.85V53.86l8.73,11.79a.63.63,0,0,0,.22.21h0l.05,0h0l0,0,0,0h0l.06,0h0A.78.78,0,0,0,69,66H72a.85.85,0,0,0,.85-.85v-19a.85.85,0,0,0-.85-.85"/>
    <path d="M43.54,61.25H35.21V46.13a.85.85,0,0,0-.85-.85H31.3a.85.85,0,0,0-.85.85v19h0a.83.83,0,0,0,.24.59h0v0a.87.87,0,0,0,.59.23H43.54a.85.85,0,0,0,.85-.85V62.1a.85.85,0,0,0-.85-.85"/>
    <path d="M89,50a.85.85,0,0,0,.85-.85V46.13a.85.85,0,0,0-.85-.85H76.7a.85.85,0,0,0-.59.24h0v0a.83.83,0,0,0-.24.59h0v19h0a.83.83,0,0,0,.24.59h0a.85.85,0,0,0,.59.24H89a.85.85,0,0,0,.85-.85V62.1a.85.85,0,0,0-.85-.85H80.62V58H89a.85.85,0,0,0,.85-.85V54.11a.85.85,0,0,0-.85-.85H80.62V50Z"/>
</svg>