<svg xmlns="http://www.w3.org/2000/svg" viewBox="0 0 242.8 243.2">
    <path d="M121.5,0A121.54,121.54,0,0,0,77.2,234.7c-1.1-9.6-2-24.4.4-34.9,2.2-9.5,14.2-60.4,14.2-60.4a44.26,44.26,0,0,1-3.6-18c0-16.9,9.8-29.5,22-29.5,10.4,0,15.4,7.8,15.4,17.1,0,10.4-6.6,26-10.1,40.5-2.9,12.1,6.1,22,18,22,21.6,0,38.2-22.8,38.2-55.6,0-29.1-20.9-49.4-50.8-49.4C86.3,66.5,66,92.4,66,119.2c0,10.4,4,21.6,9,27.7a3.62,3.62,0,0,1,.8,3.5c-.9,3.8-3,12.1-3.4,13.8-.5,2.2-1.8,2.7-4.1,1.6-15.2-7.1-24.7-29.2-24.7-47.1,0-38.3,27.8-73.5,80.3-73.5,42.1,0,74.9,30,74.9,70.2,0,41.9-26.4,75.6-63,75.6-12.3,0-23.9-6.4-27.8-14l-7.6,28.9c-2.7,10.6-10.1,23.8-15.1,31.9A121.61,121.61,0,1,0,121.5,0Z"/>
</svg>