<svg xmlns="http://www.w3.org/2000/svg" viewBox="0 0 500 500">
    <path d="M214.9,227.3c5.6-3.4,8.5-8.9,8.5-17.4s-2.6-14.5-7.9-18-15.6-5.2-31-5.2H171.2v45.6h12.3C198.8,232.3,209.3,230.7,214.9,227.3Z"/>
    <path d="M224.7,278.7c-5.5-3.8-15.9-5.7-30.9-5.7H171.2v49.5h21.7c14.6,0,25-1.8,31.1-5.5l-.1.1c6.2-3.7,9.2-8.8,9.2-18.4S230.2,282.5,224.7,278.7Z"/>
    <path d="M398.1,0H101.9A101.9,101.9,0,0,0,0,101.9V398.1A101.9,101.9,0,0,0,101.9,500H398.1A101.9,101.9,0,0,0,500,398.1V101.9A101.9,101.9,0,0,0,398.1,0ZM332.6,136.4h50V287.92h-50ZM284.1,330.7a52.53,52.53,0,0,1-21.9,21.4c-7.7,4.1-17.2,7.1-28.6,8.9s-30,2.6-55.8,2.6H113.6V136.4h62.3c25.6,0,43.5.7,53.7,2.4a82.37,82.37,0,0,1,26.2,8.6A48.71,48.71,0,0,1,275,166a55,55,0,0,1,6.6,27.1c0,12.9-3.2,23-9.8,30.7s-17,13.4-31.4,17.3q24.19,1.8,37.8,17c9.1,10.1,13.6,23.6,13.6,40.5C291.8,310.8,289.2,321.5,284.1,330.7Zm102.3,4.2a28.8,28.8,0,1,1-28.8-28.8,28.79,28.79,0,0,1,28.8,28.8Z"/>
</svg>