<svg xmlns="http://www.w3.org/2000/svg" xmlns:xlink="http://www.w3.org/1999/xlink" viewBox="0 0 270.54 85.04">
    <path d="M65.17,64.83H20.94V4.53a2.4,2.4,0,0,0-2.41-2.4H2.14A2.19,2.19,0,0,0,0,4.53V80.35a2.41,2.41,0,0,0,2.41,2.4H65.17a2.41,2.41,0,0,0,2.41-2.4V67a2.2,2.2,0,0,0-2.41-2.15"/>
    <path d="M135.39,14.16H119.26a2.41,2.41,0,0,0-2.41,2.41V80.35a2.4,2.4,0,0,0,2.41,2.4h16.13a2.4,2.4,0,0,0,2.4-2.4V16.57a2.41,2.41,0,0,0-2.4-2.41"/>
    <path d="M235.47,18.42a34.56,34.56,0,0,1,22.09,8.33,2.3,2.3,0,0,0,1.52.58c.68,0,1.06,0,1.53-.56L270,15.41a2.59,2.59,0,0,0,.56-1.88,2.48,2.48,0,0,0-.9-1.72C260.64,4.41,247.88,0,235.47,0c-12.92,0-24.87,4.28-33.66,12A40.09,40.09,0,0,0,188,42.41a40.74,40.74,0,0,0,13.54,30.45c8.64,7.85,20.35,12.18,33,12.18,11.72,0,25.22-4.2,34.38-10.69a2.54,2.54,0,0,0,1.05-2.07V48.63a2,2,0,0,0-2.13-2.24H253.07c-1.31,0-1.86,1.12-1.86,2.5V62.48a37,37,0,0,1-15.63,4c-14.85,0-26.48-10.58-26.48-24.09s11.58-24,26.37-24"/>
</svg>